<svg width="1501" height="606" viewBox="0 0 1501 606" fill="none" xmlns="http://www.w3.org/2000/svg">
<g clip-path="url(#clip0_466_1084)">
<circle cx="719.208" cy="360.066" r="44.5104" fill="white"/>
<g clip-path="url(#clip1_466_1084)">
<path d="M703.333 351.948L710.999 354.161L719.426 348.041L707.333 348.388C707.214 348.393 707.099 348.43 706.999 348.494L703.173 350.694C703.054 350.76 702.957 350.86 702.896 350.982C702.834 351.103 702.811 351.24 702.828 351.375C702.845 351.51 702.902 351.637 702.992 351.739C703.082 351.841 703.201 351.914 703.333 351.948Z" fill="#1528BC"/>
<path d="M741.027 345.094L732.627 343.281C731.921 343.127 731.189 343.128 730.483 343.282C729.777 343.436 729.112 343.74 728.534 344.174L703.16 362.614L697.067 362.347C696.718 362.336 696.374 362.434 696.084 362.628C695.794 362.822 695.572 363.102 695.449 363.429C695.327 363.757 695.311 364.114 695.402 364.451C695.494 364.788 695.689 365.087 695.96 365.307L701.894 370.014C701.991 370.093 702.108 370.145 702.231 370.166C702.355 370.187 702.482 370.176 702.6 370.134C704.294 369.481 710.6 366.134 718.054 362.041L719.547 377.387C719.56 377.52 719.608 377.647 719.688 377.755C719.767 377.862 719.875 377.945 719.998 377.996C720.122 378.047 720.257 378.063 720.389 378.043C720.521 378.022 720.645 377.966 720.747 377.881L724.08 375.107C724.263 374.954 724.386 374.742 724.427 374.507L727.587 356.787C732.92 353.827 738.014 350.961 741.6 348.934C741.973 348.732 742.274 348.419 742.462 348.04C742.651 347.661 742.719 347.233 742.657 346.814C742.594 346.394 742.404 346.005 742.113 345.697C741.821 345.39 741.442 345.179 741.027 345.094Z" fill="#1528BC"/>
</g>
<circle cx="239.178" cy="154.333" r="39.5648" fill="white"/>
<circle cx="342.293" cy="113.466" r="34.6192" fill="white"/>
<circle cx="261.756" cy="64.1319" r="34.6192" fill="white"/>
<circle cx="51.9766" cy="50.1329" r="34.6192" fill="white"/>
<circle cx="34.6192" cy="34.6192" r="34.6192" transform="matrix(1 0 0 -1 392.113 179.754)" fill="white"/>
<circle cx="34.6192" cy="34.6192" r="34.6192" transform="matrix(1 0 0 -1 499.196 201.886)" fill="white"/>
<circle cx="34.6192" cy="34.6192" r="34.6192" transform="matrix(1 0 0 -1 593.408 215.819)" fill="white"/>
<circle cx="34.6192" cy="34.6192" r="34.6192" transform="matrix(1 0 0 -1 697.879 221.819)" fill="white"/>
<circle cx="34.6192" cy="34.6192" r="34.6192" transform="matrix(1 0 0 -1 799.479 215.753)" fill="white"/>
<circle cx="34.6192" cy="34.6192" r="34.6192" transform="matrix(1 0 0 -1 899.947 201.886)" fill="white"/>
<circle cx="34.6192" cy="34.6192" r="34.6192" transform="matrix(1 0 0 -1 993.645 176.754)" fill="white"/>
<circle cx="34.6192" cy="34.6192" r="34.6192" transform="matrix(1 0 0 -1 1085.96 151.086)" fill="white"/>
<circle cx="34.6192" cy="34.6192" r="34.6192" transform="matrix(1 0 0 -1 1168.62 99.6201)" fill="white"/>
<circle cx="34.6192" cy="34.6192" r="34.6192" transform="matrix(1 0 0 -1 1348.11 89.2852)" fill="white"/>
<circle cx="34.6192" cy="34.6192" r="34.6192" transform="matrix(1 0 0 -1 1457.61 99.6201)" fill="white" fill-opacity="0.6"/>
<circle cx="39.5648" cy="39.5648" r="39.5648" transform="matrix(1 0 0 -1 1263.02 149.699)" fill="white"/>
<circle cx="39.5648" cy="39.5648" r="39.5648" transform="matrix(1 0 0 -1 1182.71 208.433)" fill="white"/>
<circle cx="39.5648" cy="39.5648" r="39.5648" transform="matrix(1 0 0 -1 1071.11 245.032)" fill="white" fill-opacity="0.8"/>
<circle cx="39.5648" cy="39.5648" r="39.5648" transform="matrix(1 0 0 -1 963.863 277.966)" fill="white" fill-opacity="0.8"/>
<circle cx="39.5648" cy="39.5648" r="39.5648" transform="matrix(1 0 0 -1 852.104 299.631)" fill="white" fill-opacity="0.8"/>
<circle cx="39.5648" cy="39.5648" r="39.5648" transform="matrix(1 0 0 -1 740.346 301.032)" fill="white" fill-opacity="0.8"/>
<circle cx="39.5648" cy="39.5648" r="39.5648" transform="matrix(1 0 0 -1 627.459 300.167)" fill="white" fill-opacity="0.8"/>
<circle cx="133.611" cy="99.7328" r="39.5648" fill="white"/>
<circle cx="121.775" cy="195.333" r="44.5104" fill="white" fill-opacity="0.6"/>
<circle cx="226.76" cy="254.266" r="44.5104" fill="white" fill-opacity="0.6"/>
<circle cx="1418.85" cy="143.333" r="44.5104" fill="white" fill-opacity="0.6"/>
<circle cx="1322.9" cy="208.332" r="44.5104" fill="white" fill-opacity="0.6"/>
<circle cx="1213.4" cy="262.067" r="44.5104" fill="white" fill-opacity="0.6"/>
<circle cx="1100.51" cy="307.999" r="44.5104" fill="white" fill-opacity="0.6"/>
<circle cx="974.077" cy="335.732" r="44.5104" fill="white" fill-opacity="0.6"/>
<circle cx="843.641" cy="352.2" r="44.5104" fill="white" fill-opacity="0.6"/>
<circle cx="594.13" cy="350.466" r="44.5104" fill="white" fill-opacity="0.6"/>
<circle cx="462.696" cy="328.799" r="44.5104" fill="white" fill-opacity="0.6"/>
<circle cx="35.821" cy="140.198" r="44.5104" fill="white" fill-opacity="0.6"/>
<circle cx="-6.91604" cy="235.2" r="49.456" fill="white" fill-opacity="0.4"/>
<circle cx="100.327" cy="301.934" r="49.456" fill="white" fill-opacity="0.4"/>
<circle cx="224.503" cy="358.267" r="49.456" fill="white" fill-opacity="0.4"/>
<circle cx="355.452" cy="403.334" r="49.456" fill="white" fill-opacity="0.4"/>
<circle cx="496.561" cy="435.398" r="49.456" fill="white" fill-opacity="0.4"/>
<circle cx="633.187" cy="458" r="49.456" fill="white" fill-opacity="0.4"/>
<circle cx="794.812" cy="459.6" r="49.456" fill="white" fill-opacity="0.4"/>
<circle cx="931.179" cy="441.466" r="49.456" fill="white" fill-opacity="0.4"/>
<circle cx="1072.29" cy="412.865" r="49.456" fill="white" fill-opacity="0.4"/>
<circle cx="1206.63" cy="371.267" r="49.456" fill="white" fill-opacity="0.4"/>
<circle cx="1452.72" cy="250.8" r="49.456" fill="white" fill-opacity="0.4"/>
<circle cx="1483.6" cy="370.268" r="54.4016" fill="white" fill-opacity="0.38"/>
<circle cx="1338.19" cy="439.6" r="54.4016" fill="white" fill-opacity="0.38"/>
<circle cx="1191.43" cy="494.2" r="54.4016" fill="white" fill-opacity="0.38"/>
<circle cx="1037.91" cy="531.466" r="54.4016" fill="white" fill-opacity="0.38"/>
<circle cx="873.092" cy="551.598" r="54.4016" fill="white" fill-opacity="0.38"/>
<circle cx="713.92" cy="551.598" r="54.4016" fill="white" fill-opacity="0.38"/>
<circle cx="549.105" cy="547.067" r="54.4016" fill="white" fill-opacity="0.38"/>
<circle cx="387.674" cy="519.334" r="54.4016" fill="white" fill-opacity="0.38"/>
<circle cx="236.406" cy="478.601" r="54.4016" fill="white" fill-opacity="0.38"/>
<circle cx="90.7805" cy="420.532" r="54.4016" fill="white" fill-opacity="0.38"/>
<circle cx="-45.5984" cy="344.267" r="54.4016" fill="white" fill-opacity="0.38"/>
<circle cx="1335.32" cy="318.4" r="49.456" fill="white" fill-opacity="0.4"/>
<circle cx="336.262" cy="198.534" r="39.5648" fill="white" fill-opacity="0.8"/>
<circle cx="442.376" cy="234.067" r="39.5648" fill="white" fill-opacity="0.8"/>
<circle cx="550.748" cy="256.599" r="39.5648" fill="white" fill-opacity="0.8"/>
<circle cx="341.906" cy="296.731" r="44.5104" fill="white" fill-opacity="0.6"/>
<path d="M675.506 388.024L667.956 392.4L665.109 387.489L666.256 386.824L668.309 390.367L670.359 389.179L668.453 385.891L669.6 385.226L671.506 388.515L673.567 387.32L671.496 383.748L672.643 383.083L675.506 388.024ZM664.328 379.616C663.998 379.792 663.791 380.055 663.708 380.406C663.624 380.755 663.67 381.147 663.844 381.582C663.966 381.888 664.117 382.132 664.297 382.314C664.477 382.496 664.67 382.613 664.874 382.666C665.079 382.719 665.284 382.706 665.488 382.627C665.656 382.559 665.788 382.463 665.881 382.336C665.973 382.208 666.036 382.059 666.069 381.889C666.1 381.721 666.111 381.543 666.104 381.357C666.096 381.17 666.079 380.986 666.052 380.804L665.938 379.968C665.887 379.634 665.865 379.301 665.874 378.97C665.881 378.637 665.932 378.321 666.027 378.023C666.121 377.722 666.272 377.454 666.48 377.217C666.688 376.981 666.968 376.792 667.319 376.652C667.794 376.462 668.26 376.416 668.719 376.514C669.174 376.613 669.596 376.851 669.983 377.229C670.366 377.605 670.687 378.118 670.947 378.766C671.199 379.397 671.321 379.983 671.311 380.525C671.301 381.065 671.161 381.54 670.891 381.951C670.62 382.36 670.219 382.682 669.69 382.919L669.112 381.475C669.385 381.341 669.585 381.16 669.711 380.932C669.837 380.704 669.897 380.449 669.891 380.166C669.885 379.882 669.82 379.586 669.697 379.28C669.57 378.961 669.41 378.701 669.219 378.499C669.025 378.295 668.814 378.159 668.588 378.09C668.359 378.023 668.128 378.034 667.894 378.125C667.685 378.212 667.535 378.343 667.447 378.52C667.355 378.697 667.308 378.913 667.303 379.169C667.294 379.424 667.311 379.71 667.354 380.03L667.485 381.047C667.581 381.783 667.532 382.414 667.339 382.941C667.143 383.467 666.754 383.846 666.174 384.078C665.697 384.269 665.227 384.307 664.765 384.192C664.302 384.075 663.881 383.831 663.504 383.462C663.124 383.094 662.821 382.627 662.594 382.06C662.364 381.485 662.262 380.941 662.289 380.428C662.313 379.914 662.452 379.462 662.706 379.072C662.958 378.684 663.31 378.395 663.763 378.204L664.328 379.616ZM662.078 376.473L660.788 376.777L659.191 369.999L660.481 369.695L661.1 372.321L668.304 370.623L668.664 372.149L661.46 373.847L662.078 376.473ZM667.538 366.194C667.571 366.45 667.51 366.682 667.354 366.888C667.197 367.095 666.989 367.214 666.73 367.245C666.477 367.281 666.248 367.219 666.044 367.06C665.839 366.9 665.721 366.692 665.687 366.436C665.655 366.188 665.717 365.961 665.873 365.754C666.029 365.544 666.234 365.422 666.487 365.386C666.659 365.366 666.821 365.391 666.973 365.46C667.125 365.526 667.253 365.624 667.356 365.754C667.455 365.881 667.516 366.028 667.538 366.194ZM667.077 361.007L665.935 360.974L663.052 357.862C662.768 357.564 662.515 357.315 662.293 357.115C662.071 356.916 661.855 356.765 661.645 356.662C661.435 356.56 661.209 356.505 660.967 356.498C660.692 356.49 660.454 356.546 660.255 356.666C660.053 356.785 659.894 356.952 659.78 357.168C659.666 357.384 659.605 357.631 659.597 357.909C659.589 358.196 659.642 358.449 659.755 358.668C659.865 358.887 660.027 359.059 660.239 359.185C660.452 359.307 660.707 359.373 661.005 359.381L660.963 360.885C660.409 360.869 659.931 360.729 659.529 360.465C659.128 360.2 658.821 359.844 658.609 359.394C658.397 358.942 658.3 358.428 658.316 357.851C658.332 357.266 658.456 356.755 658.688 356.319C658.919 355.882 659.228 355.547 659.615 355.313C660.003 355.077 660.441 354.966 660.929 354.979C661.256 354.989 661.575 355.06 661.887 355.194C662.198 355.328 662.542 355.558 662.916 355.884C663.291 356.207 663.742 356.659 664.272 357.24L665.758 358.787L665.818 358.788L665.925 354.989L667.246 355.026L667.077 361.007ZM668.137 350.429C668.013 351.119 667.731 351.681 667.293 352.113C666.852 352.542 666.277 352.829 665.566 352.976C664.853 353.119 664.029 353.107 663.092 352.938C662.156 352.767 661.383 352.491 660.773 352.11C660.161 351.726 659.726 351.256 659.467 350.702C659.21 350.145 659.143 349.522 659.266 348.834C659.39 348.147 659.67 347.586 660.105 347.154C660.541 346.721 661.112 346.433 661.819 346.289C662.527 346.141 663.348 346.152 664.282 346.32C665.221 346.489 666 346.766 666.617 347.151C667.233 347.533 667.671 348.003 667.931 348.56C668.193 349.115 668.261 349.738 668.137 350.429ZM666.824 350.193C666.921 349.656 666.732 349.185 666.26 348.78C665.785 348.371 665.031 348.074 664 347.888C663.317 347.766 662.731 347.734 662.242 347.793C661.752 347.852 661.366 347.991 661.085 348.209C660.8 348.426 660.626 348.712 660.562 349.067C660.466 349.601 660.656 350.071 661.131 350.477C661.604 350.883 662.352 351.179 663.375 351.365C664.059 351.491 664.648 351.526 665.14 351.47C665.632 351.412 666.021 351.274 666.305 351.056C666.587 350.839 666.76 350.551 666.824 350.193ZM668.929 345.733L667.847 345.366L666.007 341.544C665.823 341.175 665.654 340.863 665.501 340.607C665.347 340.351 665.185 340.143 665.015 339.983C664.844 339.824 664.644 339.705 664.415 339.627C664.154 339.539 663.911 339.522 663.685 339.578C663.457 339.633 663.256 339.746 663.084 339.919C662.911 340.091 662.781 340.309 662.691 340.573C662.599 340.845 662.575 341.102 662.619 341.345C662.66 341.587 662.763 341.799 662.929 341.981C663.097 342.161 663.321 342.298 663.604 342.394L663.121 343.819C662.596 343.641 662.181 343.367 661.875 342.996C661.568 342.625 661.38 342.194 661.31 341.702C661.24 341.208 661.298 340.687 661.483 340.141C661.671 339.587 661.94 339.135 662.289 338.785C662.639 338.436 663.033 338.206 663.472 338.097C663.912 337.985 664.363 338.008 664.826 338.165C665.135 338.27 665.419 338.432 665.678 338.651C665.936 338.871 666.196 339.192 666.458 339.613C666.721 340.032 667.02 340.597 667.356 341.308L668.322 343.223L668.378 343.243L669.598 339.643L670.849 340.067L668.929 345.733ZM673.057 335.937C672.734 336.56 672.3 337.013 671.753 337.297C671.206 337.576 670.571 337.681 669.849 337.612C669.126 337.538 668.341 337.283 667.496 336.845C666.652 336.405 665.995 335.914 665.525 335.37C665.053 334.822 664.776 334.245 664.693 333.639C664.611 333.03 664.731 332.416 665.052 331.795C665.373 331.174 665.806 330.722 666.35 330.437C666.893 330.152 667.525 330.045 668.243 330.116C668.962 330.185 669.743 330.437 670.586 330.873C671.434 331.312 672.096 331.806 672.573 332.357C673.048 332.903 673.328 333.481 673.412 334.091C673.498 334.698 673.379 335.314 673.057 335.937ZM671.872 335.324C672.123 334.839 672.082 334.334 671.75 333.807C671.417 333.276 670.785 332.77 669.854 332.288C669.238 331.97 668.688 331.767 668.202 331.679C667.717 331.591 667.307 331.609 666.974 331.734C666.638 331.858 666.387 332.08 666.221 332.4C665.972 332.882 666.015 333.387 666.349 333.915C666.681 334.442 667.308 334.946 668.23 335.426C668.847 335.748 669.399 335.956 669.886 336.047C670.374 336.137 670.785 336.12 671.121 335.996C671.455 335.871 671.705 335.647 671.872 335.324ZM673.744 315.09L684.081 325.047L683.088 326.078L672.751 316.121L673.744 315.09ZM690.732 316.025L686.364 308.47L691.205 305.672L691.868 306.819L688.396 308.826L689.582 310.877L692.722 309.062L693.385 310.209L690.246 312.024L692.101 315.234L690.732 316.025ZM696.866 312.612L693.543 304.542L695.005 303.94L697.823 310.785L701.377 309.321L701.882 310.546L696.866 312.612ZM702.143 301.294L704.685 309.643L703.173 310.103L700.631 301.754L702.143 301.294ZM711.075 302.382C710.965 302.168 710.833 301.982 710.678 301.825C710.526 301.664 710.353 301.534 710.16 301.436C709.97 301.336 709.759 301.274 709.53 301.248C709.3 301.219 709.056 301.227 708.799 301.273C708.337 301.354 707.946 301.542 707.626 301.838C707.306 302.134 707.082 302.525 706.954 303.012C706.829 303.496 706.823 304.059 706.936 304.703C707.05 305.352 707.249 305.884 707.532 306.298C707.816 306.713 708.16 307.006 708.565 307.177C708.97 307.345 709.413 307.387 709.894 307.302C710.331 307.225 710.694 307.075 710.983 306.851C711.275 306.626 711.481 306.345 711.6 306.007C711.719 305.666 711.742 305.287 711.669 304.87L712.031 304.862L709.697 305.273L709.483 304.056L712.971 303.442L713.152 304.475C713.282 305.21 713.237 305.874 713.018 306.467C712.799 307.059 712.441 307.549 711.944 307.937C711.446 308.321 710.842 308.576 710.132 308.701C709.34 308.84 708.613 308.785 707.952 308.535C707.293 308.282 706.738 307.856 706.286 307.257C705.837 306.656 705.533 305.902 705.373 304.995C705.251 304.301 705.24 303.664 705.34 303.084C705.443 302.504 705.638 301.992 705.927 301.549C706.215 301.103 706.58 300.739 707.024 300.456C707.467 300.17 707.969 299.978 708.532 299.879C709.008 299.795 709.463 299.787 709.899 299.855C710.335 299.919 710.734 300.051 711.098 300.25C711.465 300.448 711.782 300.703 712.051 301.017C712.319 301.33 712.523 301.692 712.662 302.103L711.075 302.382ZM715.268 307.826L715.253 299.099L716.834 299.096L716.84 302.791L720.884 302.783L720.878 299.089L722.463 299.086L722.478 307.813L720.893 307.816L720.887 304.109L716.843 304.116L716.849 307.823L715.268 307.826ZM724.957 300.576L725.165 299.267L732.042 300.36L731.834 301.669L729.17 301.246L728.009 308.556L726.46 308.31L727.621 301L724.957 300.576ZM731.963 309.302L734.483 300.946L739.836 302.56L739.453 303.829L735.614 302.671L734.93 304.94L738.402 305.987L738.019 307.256L734.547 306.209L733.477 309.758L731.963 309.302ZM738.621 311.601L737.09 310.891L743.548 304.265L745.319 305.086L744.44 314.298L742.909 313.588L743.712 306.314L743.65 306.285L738.621 311.601ZM740.111 308.52L744.286 310.455L743.752 311.607L739.577 309.672L740.111 308.52ZM745.405 314.895L750.278 307.655L752.993 309.482C753.549 309.856 753.951 310.267 754.198 310.714C754.447 311.163 754.551 311.627 754.509 312.105C754.472 312.584 754.298 313.054 753.987 313.515C753.674 313.98 753.304 314.316 752.876 314.525C752.452 314.732 751.986 314.801 751.479 314.73C750.974 314.657 750.443 314.433 749.887 314.059L747.953 312.758L748.686 311.669L750.443 312.851C750.768 313.07 751.064 313.204 751.332 313.255C751.601 313.302 751.844 313.272 752.061 313.164C752.281 313.056 752.478 312.873 752.65 312.616C752.823 312.359 752.92 312.106 752.941 311.856C752.963 311.604 752.903 311.361 752.759 311.127C752.616 310.891 752.381 310.663 752.054 310.442L750.852 309.633L746.716 315.778L745.405 314.895ZM751.353 314.132L750.938 318.619L749.474 317.634L749.921 313.168L751.353 314.132ZM751.796 319.345L757.653 312.874L761.861 316.683L760.972 317.666L757.936 314.918L756.346 316.674L759.164 319.225L758.275 320.208L755.456 317.657L753.858 319.423L756.919 322.194L756.03 323.177L751.796 319.345ZM763.985 318.992L765.17 320.521L761.756 326.442L761.818 326.523L768.405 324.699L769.589 326.229L762.689 331.572L761.76 330.373L766.501 326.702L766.451 326.638L760.254 328.386L759.56 327.49L762.814 321.92L762.764 321.856L758.014 325.534L757.085 324.335L763.985 318.992ZM764.104 334.002L763.337 332.499L772.507 331.269L773.395 333.007L767.019 339.714L766.252 338.211L771.372 332.982L771.341 332.921L764.104 334.002ZM767.177 332.496L769.269 336.595L768.138 337.173L766.046 333.073L767.177 332.496ZM767.41 340.78L775.714 338.096L776.721 341.21C776.927 341.848 776.989 342.419 776.907 342.923C776.826 343.43 776.622 343.859 776.293 344.21C775.968 344.562 775.541 344.825 775.011 344.996C774.479 345.168 773.98 345.204 773.514 345.104C773.053 345.005 772.644 344.771 772.289 344.403C771.937 344.033 771.657 343.529 771.451 342.891L770.734 340.673L771.983 340.269L772.634 342.284C772.755 342.658 772.905 342.946 773.085 343.151C773.267 343.355 773.477 343.481 773.713 343.53C773.954 343.581 774.221 343.558 774.516 343.463C774.81 343.368 775.043 343.229 775.214 343.045C775.387 342.861 775.489 342.632 775.52 342.359C775.554 342.085 775.51 341.761 775.389 341.385L774.943 340.006L767.896 342.285L767.41 340.78ZM772.56 343.854L769.461 347.126L768.919 345.447L772.029 342.212L772.56 343.854ZM776.927 346.669L778.235 346.457L779.347 353.331L778.039 353.542L777.608 350.879L770.301 352.062L770.051 350.514L777.357 349.331L776.927 346.669ZM781.879 368.409L767.642 366.595L767.823 365.175L782.06 366.989L781.879 368.409ZM769.817 386.984L770.478 385.534C770.734 385.601 770.98 385.621 771.214 385.593C771.451 385.567 771.672 385.501 771.876 385.394C772.081 385.288 772.264 385.143 772.425 384.961C772.588 384.782 772.724 384.571 772.835 384.328C773.032 383.896 773.098 383.464 773.033 383.032C772.97 382.6 772.774 382.196 772.443 381.817C772.116 381.44 771.653 381.115 771.056 380.843C770.449 380.566 769.894 380.427 769.392 380.426C768.891 380.429 768.459 380.548 768.096 380.782C767.735 381.02 767.456 381.354 767.261 381.783C767.152 382.021 767.082 382.257 767.05 382.492C767.019 382.731 767.028 382.961 767.077 383.183C767.124 383.408 767.213 383.618 767.342 383.815C767.47 384.013 767.64 384.188 767.853 384.338L767.184 385.784C766.831 385.558 766.531 385.279 766.282 384.947C766.033 384.618 765.847 384.251 765.726 383.846C765.607 383.442 765.565 383.014 765.599 382.562C765.636 382.11 765.763 381.648 765.978 381.175C766.297 380.477 766.742 379.927 767.315 379.527C767.888 379.126 768.551 378.907 769.305 378.87C770.059 378.832 770.862 379.008 771.715 379.397C772.571 379.787 773.23 380.279 773.693 380.874C774.158 381.47 774.427 382.116 774.501 382.811C774.574 383.506 774.453 384.2 774.137 384.893C773.935 385.335 773.686 385.718 773.389 386.041C773.092 386.365 772.755 386.62 772.379 386.808C772.006 386.997 771.602 387.108 771.169 387.142C770.737 387.179 770.286 387.126 769.817 386.984ZM763.015 394.718C762.239 394.186 761.675 393.585 761.322 392.915C760.969 392.249 760.817 391.566 760.867 390.866C760.915 390.169 761.155 389.505 761.587 388.875C762.02 388.245 762.554 387.781 763.189 387.483C763.825 387.189 764.518 387.085 765.267 387.173C766.018 387.264 766.78 387.575 767.553 388.105C768.328 388.637 768.892 389.236 769.245 389.902C769.598 390.572 769.751 391.256 769.703 391.953C769.653 392.653 769.412 393.318 768.98 393.948C768.548 394.578 768.015 395.041 767.381 395.337C766.746 395.635 766.053 395.738 765.302 395.647C764.553 395.56 763.79 395.25 763.015 394.718ZM763.914 393.407C764.46 393.782 764.979 394.012 765.471 394.098C765.964 394.188 766.409 394.15 766.807 393.982C767.207 393.815 767.541 393.536 767.81 393.145C768.078 392.754 768.218 392.342 768.23 391.909C768.243 391.477 768.12 391.046 767.861 390.616C767.601 390.191 767.199 389.79 766.653 389.416C766.108 389.041 765.588 388.809 765.095 388.719C764.603 388.633 764.157 388.673 763.757 388.839C763.359 389.007 763.026 389.287 762.757 389.678C762.489 390.069 762.348 390.48 762.334 390.912C762.323 391.345 762.447 391.775 762.706 392.201C762.966 392.63 763.368 393.033 763.914 393.407ZM764.55 399.604L763.167 400.956L756.893 398.245L756.82 398.316L759.388 404.649L758.004 406.002L751.904 399.761L752.989 398.7L757.18 402.988L757.238 402.931L754.789 396.976L755.6 396.184L761.507 398.776L761.565 398.72L757.365 394.423L758.45 393.362L764.55 399.604ZM750.596 400.84L755.58 408.004L752.893 409.873C752.343 410.256 751.81 410.474 751.294 410.529C750.776 410.585 750.296 410.5 749.855 410.274C749.413 410.051 749.034 409.713 748.718 409.258C748.398 408.799 748.211 408.323 748.156 407.832C748.102 407.34 748.192 406.861 748.427 406.393C748.664 405.927 749.058 405.502 749.611 405.117L751.392 403.879L752.134 404.946L750.528 406.063C750.206 406.286 749.982 406.526 749.854 406.78C749.727 407.035 749.683 407.294 749.721 407.559C749.757 407.824 749.863 408.084 750.04 408.338C750.217 408.593 750.423 408.782 750.658 408.905C750.89 409.031 751.148 409.075 751.43 409.038C751.711 409.005 752.014 408.875 752.338 408.65L753.528 407.822L749.298 401.743L750.596 400.84ZM743.988 405.074L745.502 404.329L746.593 413.517L744.841 414.378L738.231 407.902L739.746 407.157L744.897 412.356L744.958 412.326L743.988 405.074ZM745.447 408.169L741.316 410.199L740.756 409.059L744.887 407.029L745.447 408.169ZM737.159 408.277L739.724 416.619L736.596 417.581C735.955 417.778 735.383 417.832 734.88 417.743C734.375 417.654 733.949 417.444 733.603 417.11C733.254 416.78 732.999 416.349 732.835 415.817C732.67 415.282 732.642 414.783 732.749 414.319C732.854 413.859 733.093 413.453 733.467 413.104C733.842 412.757 734.35 412.485 734.991 412.288L737.219 411.602L737.605 412.857L735.58 413.479C735.206 413.595 734.915 413.741 734.707 413.917C734.501 414.097 734.372 414.304 734.319 414.54C734.265 414.78 734.284 415.048 734.375 415.344C734.466 415.64 734.602 415.874 734.783 416.047C734.965 416.223 735.192 416.329 735.464 416.364C735.737 416.402 736.063 416.363 736.44 416.247L737.825 415.821L735.648 408.742L737.159 408.277ZM734.012 413.382L730.785 410.237L732.471 409.719L735.662 412.875L734.012 413.382ZM729.68 410.446L731.005 419.072L725.394 419.934L725.193 418.624L729.241 418.002L728.881 415.66L725.124 416.237L724.923 414.927L728.68 414.35L728.318 411.996L724.237 412.623L724.036 411.313L729.68 410.446ZM711.84 419.829L712.343 411.117L713.747 411.198L717.509 417.37L717.582 417.374L717.924 411.439L719.503 411.53L719 420.243L717.587 420.161L713.829 413.986L713.752 413.981L713.409 419.92L711.84 419.829ZM702.064 413.325C702.28 412.409 702.637 411.666 703.134 411.095C703.627 410.525 704.209 410.137 704.88 409.931C705.547 409.723 706.253 409.708 706.997 409.883C707.741 410.059 708.366 410.389 708.873 410.874C709.377 411.36 709.724 411.969 709.913 412.7C710.099 413.433 710.085 414.255 709.869 415.168C709.653 416.083 709.298 416.825 708.805 417.395C708.308 417.966 707.726 418.355 707.058 418.563C706.387 418.769 705.68 418.785 704.937 418.609C704.193 418.433 703.569 418.104 703.064 417.62C702.557 417.135 702.21 416.526 702.024 415.793C701.835 415.063 701.848 414.24 702.064 413.325ZM703.611 413.69C703.459 414.334 703.432 414.901 703.529 415.391C703.623 415.883 703.82 416.285 704.12 416.595C704.42 416.908 704.801 417.119 705.263 417.228C705.724 417.337 706.159 417.319 706.567 417.173C706.975 417.03 707.332 416.759 707.639 416.362C707.942 415.966 708.17 415.447 708.322 414.802C708.474 414.158 708.504 413.59 708.41 413.098C708.312 412.608 708.114 412.206 707.814 411.893C707.514 411.583 707.133 411.373 706.671 411.264C706.209 411.155 705.774 411.172 705.367 411.315C704.959 411.461 704.603 411.732 704.3 412.127C703.993 412.525 703.763 413.046 703.611 413.69ZM700.233 407.849L698.786 416.801L697.244 416.083L698.523 409.605L698.45 409.571L694.223 414.678L692.82 414.026L694.001 407.497L693.931 407.464L689.799 412.62L688.257 411.903L694.171 405.029L695.585 405.687L694.587 411.976L694.649 412.005L698.819 407.191L700.233 407.849ZM677.205 407.404L686.527 396.491L687.615 397.421L678.294 408.334L677.205 407.404Z" fill="white"/>
<path fill-rule="evenodd" clip-rule="evenodd" d="M-28 0C-26.6992 88.9639 321.57 161 750.996 161C1180.42 161 1528.69 88.9639 1529.99 0H-28Z" fill="white"/>
</g>
<defs>
<clipPath id="clip0_466_1084">
<rect width="1501" height="606" fill="white"/>
</clipPath>
<clipPath id="clip1_466_1084">
<rect width="48" height="48" fill="white" transform="translate(695 336.614)"/>
</clipPath>
</defs>
</svg>
