<svg width="1280" height="575" viewBox="0 0 1280 575" fill="none" xmlns="http://www.w3.org/2000/svg">
<path d="M0 28.2555C0 7.34644 17.6058 1.64824 26.4088 1.41278C420.615 0.941851 1215.96 0 1243.69 0C1271.42 0 1279.45 20.7207 1280 31.0811V383.569C1280 408.434 1260.23 415.121 1248.64 415.356H1062.57C1016.23 415.356 1015.25 435.135 1015.25 454.208C1015.25 469.466 997.761 473.751 989.019 473.987H962.643C921.246 473.987 921.246 496.591 921.246 535.442C921.246 566.523 887.252 574.765 872.728 575H52.8175C7.28674 575 0 551.454 0 539.681V28.2555Z" fill="#D7EAF6"/>
</svg>
